<svg width="78" height="40" viewBox="0 0 78 40" fill="none" xmlns="http://www.w3.org/2000/svg">
<rect width="78" height="40" rx="20" fill="#E0E0E0"/>
<circle cx="21" cy="20" r="18" fill="#F2F3F2"/>
<path d="M21 6.5V9.875M30.546 10.454L28.1595 12.8405M34.5 20H31.125M30.546 29.546L28.1595 27.1595M21 30.125V33.5M13.8405 27.1595L11.454 29.546M10.875 20H7.5M13.8405 12.8405L11.454 10.454M26.625 20C26.625 21.4918 26.0324 22.9226 24.9775 23.9775C23.9226 25.0324 22.4918 25.625 21 25.625C19.5082 25.625 18.0774 25.0324 17.0225 23.9775C15.9676 22.9226 15.375 21.4918 15.375 20C15.375 18.5082 15.9676 17.0774 17.0225 16.0225C18.0774 14.9676 19.5082 14.375 21 14.375C22.4918 14.375 23.9226 14.9676 24.9775 16.0225C26.0324 17.0774 26.625 18.5082 26.625 20Z" stroke="#E6813E" stroke-width="2.25" stroke-linecap="round" stroke-linejoin="round"/>
</svg>
