<?xml version="1.0" encoding="utf-8"?>
<!-- Generator: Adobe Illustrator 27.5.0, SVG Export Plug-In . SVG Version: 6.00 Build 0)  -->
<svg version="1.1" xmlns="http://www.w3.org/2000/svg" xmlns:xlink="http://www.w3.org/1999/xlink" x="0px" y="0px"
	 viewBox="0 0 500 500" style="enable-background:new 0 0 500 500;" xml:space="preserve">
<g id="Background_Complete">
	<g>
		<rect y="382.398" style="fill:#EBEBEB;" width="500" height="0.25"/>
		<rect x="416.779" y="398.494" style="fill:#EBEBEB;" width="33.122" height="0.25"/>
		<rect x="322.527" y="401.208" style="fill:#EBEBEB;" width="8.693" height="0.25"/>
		<rect x="396.586" y="389.208" style="fill:#EBEBEB;" width="19.192" height="0.25"/>
		<rect x="52.459" y="390.889" style="fill:#EBEBEB;" width="43.193" height="0.25"/>
		<rect x="104.556" y="390.889" style="fill:#EBEBEB;" width="6.333" height="0.25"/>
		<rect x="131.471" y="395.11" style="fill:#EBEBEB;" width="93.676" height="0.25"/>
		<path style="fill:#EBEBEB;" d="M237.014,337.8H43.915c-3.147,0-5.708-2.561-5.708-5.708V60.66c0-3.147,2.561-5.708,5.708-5.708
			h193.099c3.146,0,5.707,2.561,5.707,5.708v271.432C242.721,335.239,240.16,337.8,237.014,337.8z M43.915,55.203
			c-3.01,0-5.458,2.448-5.458,5.458v271.432c0,3.01,2.448,5.458,5.458,5.458h193.099c3.009,0,5.457-2.448,5.457-5.458V60.66
			c0-3.009-2.448-5.458-5.457-5.458H43.915z"/>
		<path style="fill:#EBEBEB;" d="M453.31,337.8H260.212c-3.147,0-5.707-2.561-5.707-5.708V60.66c0-3.147,2.561-5.708,5.707-5.708
			H453.31c3.148,0,5.708,2.561,5.708,5.708v271.432C459.019,335.239,456.458,337.8,453.31,337.8z M260.212,55.203
			c-3.009,0-5.457,2.448-5.457,5.458v271.432c0,3.01,2.448,5.458,5.457,5.458H453.31c3.01,0,5.458-2.448,5.458-5.458V60.66
			c0-3.009-2.448-5.458-5.458-5.458H260.212z"/>
	</g>
	<g>
		<g>
			<g>
				<path style="fill:#EBEBEB;" d="M420.846,349.646c0.152-1.024,3.652-25.172-3.359-33.509c-1.552-1.846-3.511-2.81-5.821-2.867
					c-14.152-0.332-16.089,11.035-16.106,11.152l1.669,0.257c0.064-0.407,1.743-10.027,14.396-9.721
					c1.831,0.045,3.326,0.786,4.57,2.265c6.527,7.761,3.018,31.931,2.982,32.174L420.846,349.646z"/>
			</g>
			<g>
				<path style="fill:#EBEBEB;" d="M421.702,348.545l1.688-0.054c-0.007-0.222-0.561-22.249,10.293-26.801
					c10.637-4.456,15.421,4.706,15.62,5.099l1.509-0.758c-0.055-0.11-5.67-10.977-17.782-5.898
					C421.107,325.132,421.672,347.592,421.702,348.545z"/>
			</g>
			<g>
				<path style="fill:#EBEBEB;" d="M421.653,350.275c0-0.352,0.101-35.19,6.894-45.38c6.522-9.782,17.043-5.178,17.487-4.976
					l0.698-1.538c-0.122-0.055-12.263-5.414-19.591,5.577c-7.074,10.612-7.177,44.861-7.178,46.314L421.653,350.275z"/>
			</g>
			<path style="fill:#E0E0E0;" d="M409.64,314.106c0,0,6.179,2.277,4.342,7.656c-1.837,5.378-21.377,14.229-21.377,14.229
				s-8.184-7.501-0.669-19.7C399.452,304.093,409.473,310.257,409.64,314.106z"/>
			<path style="fill:#E0E0E0;" d="M428.853,303.06c0,0-4.388-0.471-4.035-3.142c0.353-2.673,17.055-9.55,26.909,1.571
				c0,0-6.31,10.838-15.431,10.98C427.177,312.61,428.853,303.06,428.853,303.06z"/>
			<path style="fill:#E0E0E0;" d="M433.355,320.912c0,0-3.027-2.444,0.24-3.638c3.268-1.193,19.301-0.855,19.468,15.027
				c0,0-18.674,3.104-20.985-2.946C429.767,323.307,433.355,320.912,433.355,320.912z"/>
			<polygon style="fill:#EBEBEB;" points="406.319,382 435.297,382 438.423,350.273 403.193,350.273 			"/>
			
				<rect x="401.647" y="346.773" transform="matrix(-1 -1.224647e-16 1.224647e-16 -1 841.6167 700.5478)" style="fill:#E0E0E0;" width="38.324" height="7.001"/>
		</g>
		<g>
			<rect x="186" y="56" style="fill:#E6E6E6;" width="98" height="122"/>
			<rect x="196" y="66" style="fill:#EBEBEB;" width="78" height="102"/>
			<rect x="216" y="86" style="fill:#E0E0E0;" width="38" height="62"/>
			<polygon style="fill:#E6E6E6;" points="254,86 232.656,112.5 241.57,121.5 216,148 254,148 246.5,110 			"/>
			<polygon style="fill:#E6E6E6;" points="216,86 229.94,102 222.97,112 			"/>
		</g>
		<g>
			<g>
				<g>
					<rect x="82" y="260" style="fill:#F0F0F0;" width="36" height="45"/>
					<rect x="82" y="259" style="fill:#E0E0E0;" width="37" height="6"/>
					<rect x="81" y="263" style="fill:#EBEBEB;" width="39" height="3"/>
					<path style="fill:#F0F0F0;" d="M118,274.73v3.609c-2.74-5.37-11.58-10.99-15.3-12.96c-0.49-0.26-0.68-0.86-0.42-1.35
						c0.26-0.49,0.86-0.67,1.35-0.41C104.14,263.89,113.25,268.76,118,274.73z"/>
					<g>
						<path style="fill:#E0E0E0;" d="M118,286.97v-2.96c0.62-0.92,0.89-1.899,0.82-2.95c-0.05-0.89-0.34-1.8-0.82-2.72
							c-2.74-5.37-11.58-10.99-15.3-12.96c-0.49-0.26-0.68-0.86-0.42-1.35c0.26-0.49,0.86-0.67,1.35-0.41
							c0.51,0.27,9.62,5.14,14.37,11.11c1.59,1.989,2.69,4.109,2.82,6.21C120.96,283.2,120.01,285.23,118,286.97z"/>
					</g>
				</g>
				<g>
					<rect x="133" y="273" style="fill:#F0F0F0;" width="27" height="32"/>
					
						<rect x="128" y="268" transform="matrix(0.9641 -0.2655 0.2655 0.9641 -66.4704 47.237)" style="fill:#E0E0E0;" width="27" height="3"/>
					<rect x="132" y="273" style="fill:#EBEBEB;" width="29" height="3"/>
					<path style="fill:#F0F0F0;" d="M160,282.204v2.719c-2-4.045-8.789-8.277-11.59-9.761c-0.369-0.195-0.546-0.648-0.351-1.016
						c0.196-0.369,0.699-0.505,1.068-0.31C149.512,274.04,156,277.708,160,282.204z"/>
					<g>
						<path style="fill:#E0E0E0;" d="M160,291.422v-2.229c0-0.692,0.603-1.431,0.55-2.222c-0.038-0.67-0.29-1.355-0.651-2.048
							c-2.063-4.045-8.738-8.277-11.539-9.761c-0.369-0.195-0.521-0.648-0.325-1.016c0.196-0.369,0.644-0.505,1.013-0.31
							c0.384,0.203,7.242,3.871,10.819,8.367c1.197,1.498,2.093,3.095,2.191,4.677C162.163,288.583,161,290.111,160,291.422z"/>
					</g>
				</g>
				<g>
					<rect x="48" y="271" style="fill:#E0E0E0;" width="27" height="34"/>
					<rect x="48" y="270" style="fill:#E0E0E0;" width="27" height="5"/>
					<rect x="47" y="273" style="fill:#EBEBEB;" width="29" height="3"/>
					<path style="fill:#F0F0F0;" d="M48,282.204v2.719c2-4.045,8.821-8.277,11.622-9.761c0.369-0.195,0.562-0.648,0.367-1.016
						c-0.196-0.369-0.723-0.505-1.092-0.31C58.513,274.04,52,277.708,48,282.204z"/>
					<g>
						<path style="fill:#EBEBEB;" d="M48,291.422v-2.229c0-0.692-0.571-1.431-0.518-2.222c0.038-0.67,0.306-1.355,0.667-2.048
							c2.064-4.045,8.746-8.277,11.547-9.761c0.369-0.195,0.524-0.648,0.329-1.016c-0.196-0.369-0.642-0.505-1.011-0.31
							c-0.384,0.203-7.241,3.871-10.818,8.367c-1.197,1.498-2.125,3.095-2.223,4.677C45.869,288.583,47,290.111,48,291.422z"/>
					</g>
				</g>
				<g>
					<rect x="184" y="262" style="fill:#F0F0F0;" width="36" height="43"/>
					<rect x="182" y="263" style="fill:#EBEBEB;" width="39" height="3"/>
					<path style="fill:#F0F0F0;" d="M184,274.73v3.609c3-5.37,11.497-10.99,15.217-12.96c0.49-0.26,0.639-0.86,0.379-1.35
						c-0.26-0.49-0.798-0.67-1.288-0.41C197.798,263.89,189,268.76,184,274.73z"/>
					<g>
						<path style="fill:#E0E0E0;" d="M184,286.97v-2.96c-1-0.92-0.973-1.899-0.903-2.95c0.05-0.89,0.298-1.8,0.778-2.72
							c2.74-5.37,11.559-10.99,15.279-12.96c0.49-0.26,0.67-0.86,0.41-1.35c-0.26-0.49-0.865-0.67-1.355-0.41
							c-0.51,0.27-9.623,5.14-14.373,11.11c-1.59,1.989-2.608,4.109-2.738,6.21C180.958,283.2,182,285.23,184,286.97z"/>
					</g>
					<path style="fill:#E0E0E0;" d="M238.567,278.022c6.499,8.063,6.364,18.953-0.301,24.325c-6.665,5.373-17.335,3.192-23.835-4.87
						c-6.499-8.062-6.364-18.952,0.301-24.324C221.398,267.78,232.069,269.961,238.567,278.022z"/>
				</g>
			</g>
			<g>
				<g>
					<rect x="89" y="337" style="fill:#F0F0F0;" width="36" height="45"/>
					<rect x="89" y="336" style="fill:#E0E0E0;" width="37" height="6"/>
					<rect x="88" y="340" style="fill:#EBEBEB;" width="39" height="3"/>
					<path style="fill:#F0F0F0;" d="M125,351.73v3.609c-2.74-5.37-11.58-10.99-15.3-12.96c-0.49-0.26-0.68-0.86-0.42-1.35
						c0.26-0.49,0.86-0.67,1.35-0.41C111.14,340.89,120.25,345.76,125,351.73z"/>
					<g>
						<path style="fill:#E0E0E0;" d="M125,363.97v-2.96c0.62-0.92,0.89-1.899,0.82-2.95c-0.05-0.89-0.34-1.8-0.82-2.72
							c-2.74-5.37-11.58-10.99-15.3-12.96c-0.49-0.26-0.68-0.86-0.42-1.35c0.26-0.49,0.86-0.67,1.35-0.41
							c0.51,0.27,9.62,5.14,14.37,11.11c1.59,1.989,2.69,4.109,2.82,6.21C127.96,360.2,127.01,362.23,125,363.97z"/>
					</g>
				</g>
				<g>
					<rect x="140" y="348" style="fill:#F0F0F0;" width="27" height="34"/>
					<rect x="140" y="347" style="fill:#E0E0E0;" width="28" height="5"/>
					<rect x="139" y="350" style="fill:#EBEBEB;" width="29" height="3"/>
					<path style="fill:#F0F0F0;" d="M167,359.204v2.719c-2-4.045-8.789-8.277-11.59-9.761c-0.369-0.195-0.546-0.648-0.351-1.016
						c0.196-0.369,0.699-0.505,1.068-0.31C156.512,351.04,163,354.708,167,359.204z"/>
					<g>
						<path style="fill:#E0E0E0;" d="M167,368.422v-2.229c0-0.692,0.603-1.431,0.55-2.222c-0.038-0.67-0.29-1.355-0.651-2.048
							c-2.063-4.045-8.738-8.277-11.539-9.761c-0.369-0.195-0.521-0.648-0.325-1.016c0.196-0.369,0.644-0.505,1.013-0.31
							c0.384,0.203,7.242,3.871,10.819,8.367c1.197,1.498,2.093,3.095,2.191,4.677C169.163,365.583,168,367.111,167,368.422z"/>
					</g>
				</g>
				<g>
					<rect x="55" y="348" style="fill:#F0F0F0;" width="27" height="34"/>
					<rect x="54" y="347" style="fill:#E0E0E0;" width="28" height="5"/>
					<rect x="54" y="350" style="fill:#EBEBEB;" width="29" height="3"/>
					<path style="fill:#F0F0F0;" d="M55,359.204v2.719c2-4.045,8.821-8.277,11.622-9.761c0.369-0.195,0.562-0.648,0.367-1.016
						c-0.196-0.369-0.723-0.505-1.092-0.31C65.513,351.04,59,354.708,55,359.204z"/>
					<g>
						<path style="fill:#E0E0E0;" d="M55,368.422v-2.229c0-0.692-0.571-1.431-0.518-2.222c0.038-0.67,0.306-1.355,0.667-2.048
							c2.064-4.045,8.746-8.277,11.547-9.761c0.369-0.195,0.524-0.648,0.329-1.016c-0.196-0.369-0.642-0.505-1.011-0.31
							c-0.384,0.203-7.241,3.871-10.818,8.367c-1.197,1.498-2.125,3.095-2.223,4.677C52.869,365.583,54,367.111,55,368.422z"/>
					</g>
				</g>
				<g>
					<rect x="180" y="337" style="fill:#F0F0F0;" width="36" height="45"/>
					<rect x="180" y="336" style="fill:#E0E0E0;" width="37" height="6"/>
					<rect x="179" y="340" style="fill:#EBEBEB;" width="39" height="3"/>
					<g>
						<path style="fill:#E0E0E0;" d="M200.661,341.088c-0.389-0.861-9.741-21.086-27.738-19.693c-3.59,0.278-5.777,1.52-6.5,3.688
							c-1.959,5.878,8.58,16.729,13.577,21.449v-2.787c-5.539-5.451-13.024-13.996-11.679-18.029
							c0.444-1.333,2.045-2.116,4.756-2.326c16.609-1.281,25.672,18.326,25.762,18.523c0.229,0.504,0.822,0.727,1.323,0.499
							C200.665,342.184,200.889,341.591,200.661,341.088z"/>
					</g>
				</g>
				<g>
					<rect x="70" y="353" style="fill:#E0E0E0;" width="23" height="29"/>
					<rect x="70" y="352" style="fill:#F0F0F0;" width="24" height="4"/>
					<rect x="69" y="355" style="fill:#F5F5F5;" width="26" height="2"/>
					<g>
						<path style="fill:#E0E0E0;" d="M83.384,355.656c-0.251-0.554-6.272-13.577-17.861-12.68c-2.312,0.179-3.72,0.979-4.185,2.374
							c-1.262,3.785,5.524,10.772,8.742,13.812v-1.795c-3.567-3.51-8.387-9.012-7.521-11.609c0.286-0.858,1.317-1.362,3.063-1.498
							c10.694-0.824,16.53,11.801,16.588,11.928c0.147,0.324,0.529,0.469,0.853,0.321C83.386,356.362,83.53,355.98,83.384,355.656z"
							/>
					</g>
				</g>
				<g>
					<rect x="108" y="348" style="fill:#E6E6E6;" width="27" height="34"/>
					<rect x="107" y="347" style="fill:#E0E0E0;" width="28" height="5"/>
					<rect x="107" y="350" style="fill:#F5F5F5;" width="29" height="3"/>
					<path style="fill:#F0F0F0;" d="M108,359.204v2.719c2-4.045,8.821-8.277,11.622-9.761c0.369-0.195,0.562-0.648,0.367-1.016
						c-0.196-0.369-0.723-0.505-1.092-0.31C118.513,351.04,112,354.708,108,359.204z"/>
					<g>
						<path style="fill:#FAFAFA;" d="M108,368.422v-2.229c0-0.692-0.571-1.431-0.518-2.222c0.038-0.67,0.306-1.355,0.668-2.048
							c2.063-4.045,8.746-8.277,11.547-9.761c0.369-0.195,0.524-0.648,0.329-1.016c-0.196-0.369-0.642-0.505-1.011-0.31
							c-0.384,0.203-7.241,3.871-10.818,8.367c-1.197,1.498-2.125,3.095-2.223,4.677C105.869,365.583,107,367.111,108,368.422z"/>
					</g>
				</g>
				<g>
					<rect x="213" y="353" style="fill:#E0E0E0;" width="23" height="29"/>
					<rect x="212" y="352" style="fill:#F0F0F0;" width="24" height="4"/>
					<rect x="211" y="355" style="fill:#F5F5F5;" width="26" height="2"/>
					<g>
						<path style="fill:#E0E0E0;" d="M222.8,355.656c0.251-0.554,6.272-13.577,17.861-12.68c2.312,0.179,3.72,0.979,4.185,2.374
							c1.262,3.785-5.524,10.772-8.742,13.812v-1.795c3.567-3.51,8.387-9.012,7.52-11.609c-0.286-0.858-1.317-1.362-3.063-1.498
							c-10.694-0.824-16.53,11.801-16.588,11.928c-0.147,0.324-0.529,0.469-0.853,0.321
							C222.798,356.362,222.653,355.98,222.8,355.656z"/>
					</g>
				</g>
			</g>
			<g>
				<g>
					<rect x="33" y="312" style="fill:#EBEBEB;" width="9" height="70"/>
					<rect x="263" y="312" style="fill:#EBEBEB;" width="9" height="70"/>
				</g>
				<rect x="23" y="305" style="fill:#E0E0E0;" width="259" height="12"/>
			</g>
		</g>
		<g>
			<rect x="67" y="107" style="fill:#E6E6E6;" width="98" height="122"/>
			<rect x="77" y="117" style="fill:#EBEBEB;" width="78" height="102"/>
			<path style="fill:#E6E6E6;" d="M135,142.906c-10.353-13.466-43.939-14.406-44.47,7.594c-0.53,22,12.5-0.5,22.235,4.5
				c9.735,5,20.735,22,27.235,13S143,153.311,135,142.906z"/>
			<path style="fill:#E6E6E6;" d="M120.498,172c12.922,2.465,18.138,15.5,4.07,21c-14.068,5.5-33.068,1.752-23.068-2.624
				C111.5,186,112.647,170.502,120.498,172z"/>
			<path style="fill:#F5F5F5;" d="M111.498,171.234c0,3.175-2.574,5.749-5.749,5.749S100,174.409,100,171.234
				c0-3.175,2.574-5.749,5.749-5.749S111.498,168.059,111.498,171.234z"/>
		</g>
		<g>
			<g>
				<g>
					<rect x="349" y="96" style="fill:#E0E0E0;" width="3" height="10"/>
					<rect x="409" y="96" style="fill:#E0E0E0;" width="3" height="10"/>
				</g>
				<rect x="330" y="93" style="fill:#E6E6E6;" width="102" height="6"/>
			</g>
			<g>
				<rect x="343" y="78" style="fill:#EBEBEB;" width="14" height="15"/>
				<rect x="343" y="77" style="fill:#E6E6E6;" width="14" height="3"/>
				<rect x="342" y="78" style="fill:#E0E0E0;" width="16" height="1"/>
			</g>
			<g>
				<rect x="360" y="84" style="fill:#EBEBEB;" width="8" height="9"/>
				<rect x="360" y="83" style="fill:#E6E6E6;" width="8" height="2"/>
				<rect x="359" y="84" style="fill:#E0E0E0;" width="10" height="0"/>
			</g>
			<g>
				<rect x="379" y="63" style="fill:#EBEBEB;" width="1" height="25"/>
				<path style="fill:#EBEBEB;" d="M379,57.583c0,0,3.083,4.083,0.5,6.333C379.5,63.917,376.5,62.25,379,57.583z"/>
				<polygon style="fill:#EBEBEB;" points="383.375,82.417 385.667,64 387,64 384.583,83 				"/>
				<path style="fill:#EBEBEB;" d="M385.619,64c0,0-1.214-2.022,0-4.606l3.547,0.738c0,0-0.347,2.868-2.215,3.868H385.619z"/>
				<path style="fill:#EBEBEB;" d="M383.375,85.5l-0.708-19.166c0,0,1.041-2.167,0.354-3.334L382,62.75c0,0-1.559,1.659-0.417,3.416
					L382.27,86L383.375,85.5z"/>
				<rect x="376" y="76" style="fill:#E0E0E0;" width="12" height="17"/>
			</g>
			<g>
				<polygon style="fill:#E6E6E6;" points="421.33,93 398,93 398,91 401.96,90.79 417.15,88.56 				"/>
				<path style="fill:#E0E0E0;" d="M402,93h-4v-2l3.96-0.21C401.96,90.79,403.42,92.08,402,93z"/>
			</g>
		</g>
	</g>
</g>
<g id="Background_Simple" style="display:none;">
	<g style="display:inline;">
		<path style="fill:#407BFF;" d="M95.652,118.033c54.781-67.239,149.398-65.503,181.007-10.286
			c31.608,55.217,69.026,174.917,125.567,170.14c56.542-4.776,73.75,82.16-33.465,88.732
			c-107.215,6.571-116.281-41.956-159.622-52.056c-43.34-10.1-92.521,40.767-127.858,10.734
			C45.945,295.264,26.679,202.692,95.652,118.033z"/>
		<path style="opacity:0.9;fill:#FFFFFF;enable-background:new    ;" d="M95.652,118.033
			c54.781-67.239,149.398-65.503,181.007-10.286c31.608,55.217,69.026,174.917,125.567,170.14
			c56.542-4.776,73.75,82.16-33.465,88.732c-107.215,6.571-116.281-41.956-159.622-52.056c-43.34-10.1-92.521,40.767-127.858,10.734
			C45.945,295.264,26.679,202.692,95.652,118.033z"/>
	</g>
</g>
<g id="Shadow_1_">
	<ellipse id="_x3C_Path_x3E__359_" style="fill:#F5F5F5;" cx="250" cy="416.238" rx="193.889" ry="11.323"/>
</g>
<g id="Artwork">
	<g>
		<polygon style="fill:#407BFF;" points="436,132.24 396,417.95 255.28,417.95 295.28,132.24 		"/>
		<polygon style="opacity:0.6;fill:#FFFFFF;enable-background:new    ;" points="429,132.24 389,417.95 255.28,417.95 
			295.28,132.24 		"/>
		<path style="opacity:0.2;fill:#407BFF;enable-background:new    ;" d="M269.9,313.287c0,0,55.53-2.185,59.53,13.02
			c4,15.205-40.537,46.073,64.999,52.648L389,418H255L269.9,313.287z"/>
		<path style="opacity:0.3;fill:#FFFFFF;enable-background:new    ;" d="M271.368,303.039c0,0,69.063-11.213,133.597,0.874
			l4.96-35.423c0,0-24.425,12.449-35.425,18.479c-11,6.03-21.104-10.47-27.302-11.97c-6.198-1.5-14.769,14.391-22.483,14.695
			C317,290,309.833,282.5,302.667,283.5S272,298.524,272,298.524L271.368,303.039z"/>
		<path style="opacity:0.2;fill:#FFFFFF;enable-background:new    ;" d="M280.33,239.027c0,0,18.003-12.649,22.336-11.088
			c4.333,1.561,6.427,18.526,17.63,20.293c11.203,1.768,18.483-8.275,25.343,0.246C352.5,257,354,265.5,361.5,266s17-6,21,0
			s17,0.027,17,0.027S376,289.5,367.5,282.5s-13.22-13-21.86-12.5c-8.64,0.5-15.086,16.969-23.113,14.484
			c-8.027-2.484-13.694-7.397-19.86-6.94c-6.167,0.456-29.672,13.878-29.672,13.878L280.33,239.027z"/>
		<path style="opacity:0.2;fill:#FFFFFF;enable-background:new    ;" d="M370,201.5c0,0-0.148-0.094-0.436-0.275
			c-0.284-0.191-0.728-0.429-1.299-0.718c-1.152-0.57-2.967-1.201-5.278-1.262c-1.15-0.028-2.42,0.126-3.706,0.506
			c-1.27,0.412-2.598,1.008-3.651,1.969c-1.063,0.939-1.783,2.207-1.802,3.494c0.003,0.326,0.036,0.65,0.098,0.982
			c0.046,0.168,0.067,0.33,0.124,0.503l0.203,0.72c0.276,0.978,0.56,1.779,0.921,2.716c0.707,1.798,1.612,3.602,2.801,5.037
			c0.572,0.751,1.242,1.316,1.895,1.823c0.687,0.424,1.373,0.727,2.087,0.838c0.178,0.038,0.371,0.013,0.552,0.033
			c0.181,0.02,0.366,0.029,0.566-0.011c0.195-0.023,0.39-0.04,0.585-0.051l0.62-0.157l0.312-0.073l0.078-0.017l0.152-0.041
			l0.223-0.064l0.896-0.258c0.601-0.17,1.299-0.341,1.933-0.504c2.488-0.626,4.987-1.126,6.588-1.967
			c0.811-0.413,1.262-0.868,1.65-1.431c0.365-0.588,0.722-1.3,0.887-2.323c0.136-0.446,0.139-1.045,0.227-1.558
			c0.048-0.647,0.095-1.297,0.143-1.948c0.062-1.239,0.119-2.514,0.114-3.795c-0.003-2.545-0.233-5.058-0.727-7.381
			c-0.512-2.306-1.317-4.455-2.568-5.969c-0.328-0.358-0.6-0.779-0.98-1.064l-0.521-0.487l-0.594-0.395
			c-0.365-0.306-0.835-0.475-1.265-0.703l-0.163-0.083l-0.081-0.042l-0.041-0.022c-0.19-0.073,0.216,0.076,0.149,0.053l-0.493-0.171
			l-0.986-0.34c-0.37-0.145-0.547-0.144-0.795-0.205l-0.699-0.163c-0.509-0.096-1.105-0.163-1.653-0.256l-1.721-0.105l-1.742,0.048
			c-2.326,0.167-4.655,0.684-6.798,1.499c-2.137,0.818-4.085,1.976-5.541,3.318c-0.397,0.322-0.636,0.702-0.979,1.037
			c-0.226,0.379-0.512,0.688-0.716,1.103l-0.44,0.855l-0.308,0.694c-0.209,0.414-0.413,1.007-0.615,1.513
			c-0.391,1.075-0.734,2.224-1.149,3.483c-0.433,1.245-0.886,2.694-2.018,4.198c-0.317,0.364-0.592,0.739-0.971,1.057
			c-0.384,0.304-0.75,0.655-1.173,0.872c-0.415,0.217-0.846,0.481-1.259,0.612c-0.414,0.135-0.834,0.27-1.242,0.374
			c-0.773,0.123-1.565,0.253-2.246,0.23l-0.527,0.006l-0.262,0.002l-0.238-0.004l-0.107-0.01l-0.847-0.08
			c-0.573-0.059-1.096-0.093-1.698-0.172c-0.657-0.118-1.308-0.234-1.954-0.35c-0.64-0.161-1.272-0.372-1.885-0.577
			c-0.581-0.268-1.239-0.537-1.687-0.816c-0.432-0.242-0.859-0.482-1.282-0.719c-0.382-0.179-0.72-0.337-1.104-0.478l-0.596-0.165
			l-0.297-0.085l-0.148-0.043l-0.074-0.022c-0.229-0.023,0.271,0.018,0.202,0.013l-0.046-0.003l-0.728-0.063
			c-0.076-0.011-0.103-0.006-0.109,0.004l-0.047,0.017c-0.032,0.008-0.065,0.011-0.101,0.008c-0.04-0.035-0.235,0.04-0.383,0.08
			c-0.156,0.045-0.313,0.069-0.485,0.162l-0.51,0.224l-0.523,0.292c-0.698,0.395-1.405,0.892-2.104,1.371
			c-1.408,0.966-2.821,1.97-4.405,2.539c-1.563,0.606-3.297,0.64-4.607,0.159c-0.327-0.131-0.633-0.243-0.94-0.384
			c-0.254-0.14-0.5-0.276-0.74-0.408c-0.481-0.281-0.948-0.571-1.348-0.871c-0.403-0.301-0.776-0.601-1.051-1.024
			c-0.125-0.202-0.229-0.532-0.179-0.471c0.011-0.026-0.214-0.083-0.349-0.103C304.712,205.072,304,205,304,205
			s0.175-0.02,0.513-0.06c0.341-0.035,0.832-0.112,1.509-0.145c0.185,0.016,0.329-0.059,0.657,0.107
			c0.168,0.126,0.22,0.291,0.257,0.34c0.039,0.074,0.088,0.119,0.136,0.177c0.218,0.22,0.585,0.423,0.993,0.607
			c0.412,0.192,0.863,0.348,1.367,0.526c0.259,0.087,0.525,0.177,0.8,0.269c0.246,0.05,0.499,0.101,0.758,0.153
			c1.045,0.162,2.149-0.065,3.248-0.726c1.1-0.659,2.215-1.643,3.444-2.812c0.629-0.583,1.278-1.206,2.071-1.833l0.608-0.469
			l0.7-0.45c0.222-0.157,0.511-0.284,0.791-0.415c0.292-0.127,0.525-0.269,0.962-0.362c0.37-0.093,0.865-0.195,1.158-0.218
			l0.73-0.028l0.046-0.001c-0.038-0.006,0.492,0.041,0.293,0.025l0.106,0.016l0.212,0.032l0.428,0.066
			c0.287,0.046,0.576,0.093,0.866,0.14c0.576,0.129,1.195,0.324,1.763,0.52c0.5,0.207,1.006,0.417,1.517,0.629
			c0.474,0.221,0.825,0.282,1.229,0.429c0.416,0.072,0.825,0.16,1.249,0.217c0.435,0.027,0.873,0.055,1.315,0.083
			c0.503,0.009,1.101-0.018,1.655-0.025l0.852-0.018l0.106-0.003c0.044,0.001-0.18-0.007-0.066-0.006l0.042-0.005l0.165-0.02
			l0.331-0.038c0.472-0.021,0.811-0.153,1.186-0.227c0.662-0.261,0.879-0.468,1.148-0.91c0.274-0.456,0.576-1.365,0.843-2.468
			c0.275-1.104,0.549-2.37,0.918-3.696c0.212-0.683,0.368-1.306,0.661-2.063l0.416-1.078l0.389-0.88
			c0.324-0.759,0.815-1.497,1.251-2.229c0.511-0.638,0.996-1.361,1.571-1.918c2.242-2.371,4.929-4.027,7.757-5.268
			c2.836-1.236,5.866-2.023,9.016-2.316c3.172-0.279,6.351-0.149,9.807,0.91l0.989,0.332l0.495,0.167
			c-0.025-0.011,0.421,0.157,0.269,0.103l0.077,0.036l0.154,0.072l0.307,0.144c0.815,0.394,1.646,0.75,2.394,1.299l1.14,0.775
			l1.034,0.912c0.715,0.592,1.272,1.307,1.858,2.001c2.255,2.869,3.347,6.147,4.016,9.24c0.654,3.12,0.774,6.169,0.722,9.114
			c-0.035,1.466-0.123,2.924-0.257,4.401c-0.082,0.704-0.164,1.406-0.246,2.106l-0.199,1.207c-0.057,0.395-0.141,0.802-0.266,1.224
			c-0.36,1.621-1.133,3.407-2.307,4.969c-1.182,1.58-2.891,2.789-4.462,3.456c-1.583,0.69-3.055,1.044-4.425,1.338
			c-1.362,0.28-2.626,0.475-3.841,0.68c-0.597,0.107-1.125,0.191-1.734,0.314l-0.912,0.189l-0.228,0.047l-0.223,0.038l-0.596,0.102
			c-1.545,0.338-3.295,0.237-4.905-0.138c-1.635-0.432-3.065-1.264-4.254-2.22c-1.115-1.003-2.081-2.08-2.753-3.219
			c-1.431-2.253-2.215-4.532-2.8-6.705c-0.278-1.056-0.533-2.235-0.688-3.213l-0.118-0.739c-0.057-0.309-0.077-0.639-0.111-0.954
			c-0.046-0.642,0.009-1.286,0.11-1.91c0.233-1.25,0.775-2.379,1.458-3.284c0.685-0.911,1.499-1.613,2.332-2.159
			c1.677-1.09,3.422-1.596,5.02-1.789c1.605-0.175,3.071-0.08,4.344,0.18c2.567,0.507,4.287,1.647,5.338,2.446
			c0.529,0.417,0.9,0.767,1.132,1.013C369.877,201.374,370,201.5,370,201.5z"/>
		<path style="opacity:0.15;fill:#FFFFFF;enable-background:new    ;" d="M368.5,163c0,0,0.094-0.024,0.276-0.071
			c0.181-0.052,0.451-0.113,0.824-0.164c0.72-0.087,1.897-0.128,3.237,0.486c1.352,0.565,2.665,1.812,4.068,2.812
			c0.713,0.483,1.465,0.822,2.249,0.867c0.393,0.026,0.803-0.005,1.235-0.099c0.2-0.031,0.466-0.122,0.629-0.168
			c0.268-0.091,0.538-0.184,0.812-0.278c1.122-0.361,2.186-0.788,3.283-1.231c1.117-0.472,2.285-0.95,3.485-1.487
			c2.436-1.07,5.003-2.243,8.103-3.056c0.542-0.107,1.007-0.18,1.547-0.184c0.529-0.012,1.099,0.039,1.667,0.189
			c1.152,0.277,2.183,0.959,2.89,1.617c1.416,1.349,2.161,2.479,2.925,2.947c0.375,0.247,0.695,0.376,1.148,0.449
			c0.227,0.046,0.286,0.036,0.386,0.047l0.406,0.025c0.3,0.011,0.615,0.009,0.938-0.002c1.3-0.059,2.678-0.293,3.985-0.646
			c1.305-0.348,2.578-0.829,3.596-1.453c1.032-0.615,1.735-1.362,1.876-1.917c0.088-0.283,0.094-0.576,0.011-0.976
			c-0.036-0.196-0.126-0.415-0.211-0.639l-0.452-0.945c-0.61-1.226-1.286-2.414-2.011-3.408c-0.728-0.993-1.544-1.766-2.276-2.119
			c-0.37-0.183-0.726-0.257-1.127-0.264c-0.392-0.001-0.871,0.109-1.302,0.271c-2.125,0.837-3.881,2.306-3.993,3.713
			c-0.091,0.684,0.24,1.526,0.74,2.174c0.492,0.624,1.253,1.174,1.989,1.546c1.46,0.737,3.174,0.98,3.728,0.209
			c0.279-0.384,0.323-0.968,0.263-1.452c-0.064-0.491-0.174-0.919-0.29-1.257c-0.11-0.34-0.209-0.6-0.279-0.773
			c-0.068-0.175-0.103-0.266-0.103-0.266s0.057,0.079,0.167,0.231c0.11,0.153,0.28,0.376,0.465,0.694
			c0.194,0.314,0.407,0.719,0.601,1.241c0.174,0.513,0.36,1.224,0.005,2.05c-0.18,0.407-0.546,0.764-0.964,0.983
			c-0.419,0.224-0.882,0.338-1.351,0.393c-0.943,0.111-1.922-0.039-2.919-0.346c-0.996-0.33-2.01-0.788-2.997-1.668
			c-0.491-0.458-0.89-0.944-1.231-1.576c-0.333-0.621-0.577-1.375-0.614-2.177c-0.091-1.639,0.68-3.193,1.656-4.325
			c0.974-1.163,2.246-2.041,3.549-2.719c0.77-0.387,1.588-0.683,2.551-0.805c0.95-0.113,1.992-0.008,2.914,0.323
			c1.877,0.662,3.184,1.929,4.254,3.168c1.074,1.265,1.92,2.602,2.697,3.998l0.563,1.045c0.218,0.459,0.429,0.925,0.576,1.46
			c0.311,1.045,0.374,2.31,0.057,3.489c-0.309,1.184-0.947,2.196-1.653,2.976c-0.71,0.788-1.494,1.387-2.289,1.881
			c-1.595,0.987-3.237,1.597-4.895,2.063c-1.666,0.44-3.344,0.708-5.107,0.775c-0.443,0.012-0.894,0.011-1.358-0.012
			c-0.249-0.02-0.446-0.025-0.736-0.064c-0.279-0.036-0.601-0.084-0.746-0.12c-1.049-0.196-2.16-0.682-3.017-1.316
			c-1.741-1.29-2.598-2.807-3.33-3.502c-0.363-0.364-0.605-0.521-0.878-0.611c-0.242-0.102-0.728-0.115-1.111-0.074
			c-0.106,0.008-0.335,0.061-0.495,0.089l-0.431,0.106l-0.983,0.244c-0.653,0.154-1.298,0.372-1.942,0.54
			c-1.286,0.38-2.563,0.801-3.819,1.219c-1.267,0.419-2.515,0.826-3.748,1.172c-1.269,0.328-2.497,0.633-3.614,0.835
			c-0.283,0.057-0.564,0.113-0.842,0.168c-0.391,0.064-0.667,0.115-1.018,0.132c-0.661,0.047-1.344,0.021-1.986-0.149
			c-1.304-0.319-2.311-1.066-3.039-1.765c-1.443-1.43-2.294-2.714-3.348-3.429c-1.016-0.731-2.037-0.993-2.741-1.064
			c-0.35-0.032-0.63-0.054-0.818-0.049C368.597,163.001,368.5,163,368.5,163z"/>
		<path style="opacity:0.1;fill:#FFFFFF;enable-background:new    ;" d="M298,162.5c-0.004-0.031,0.258,0.2,0.725,0.131
			c0.465-0.102,1.01-0.637,1.831-1.154c1.612-1.091,4.287-2.153,7.586-2.642c1.677-0.257,3.608-0.326,5.576,0.11
			c1.98,0.383,3.849,1.337,5.319,1.163c0.192-0.014,0.386-0.035,0.583-0.09l0.295-0.064c0.019-0.004-0.105,0.029-0.042,0.011
			l0.024-0.007l0.045-0.015l0.092-0.03l0.184-0.061c0.476-0.165,1.028-0.314,1.399-0.509l0.618-0.271l0.657-0.343
			c0.461-0.244,0.924-0.488,1.389-0.734c0.96-0.532,2.152-1.031,3.389-1.292l0.937-0.139l0.4-0.054l0.403-0.045
			c0.265-0.032,0.471-0.076,0.71-0.11l0.77-0.145c1.051-0.189,2.162-0.407,3.355-0.504c1.184-0.089,2.505-0.069,3.824,0.439
			c0.655,0.24,1.275,0.643,1.796,1.116c0.507,0.486,0.915,1.044,1.212,1.613l0.119,0.212l0.03,0.053l0.015,0.026l0.048,0.106
			l0.036,0.091l0.145,0.363l0.144,0.362l0.139,0.496c0.093,0.333,0.173,0.664,0.193,0.971c0.037,0.314,0.078,0.624,0.057,0.939
			c-0.01,1.254-0.358,2.473-0.961,3.475c-0.599,1.008-1.387,1.843-2.331,2.459c-0.493,0.29-0.984,0.565-1.595,0.699
			c-0.272,0.087-0.655,0.1-0.935,0.11c-0.22-0.006-0.442-0.017-0.69-0.038c-0.944-0.078-1.821-0.217-2.68-0.449
			c-0.847-0.249-1.694-0.527-2.412-1.186c-0.338-0.339-0.671-0.771-0.742-1.283c-0.073-0.25-0.048-0.484-0.022-0.713
			c0.006-0.24,0.092-0.424,0.16-0.617c0.117-0.404,0.36-0.661,0.529-0.968c0.21-0.268,0.368-0.48,0.58-0.713
			c0.397-0.462,0.805-0.839,1.233-1.132c0.422-0.292,0.925-0.456,1.348-0.385c0.421,0.064,0.698,0.269,0.904,0.421
			c0.399,0.321,0.612,0.492,0.612,0.492s-0.242-0.123-0.697-0.353c-0.225-0.105-0.517-0.226-0.838-0.202
			c-0.319,0.022-0.649,0.197-0.963,0.498c-0.309,0.302-0.619,0.704-0.893,1.167c-0.14,0.218-0.295,0.515-0.436,0.753
			c-0.086,0.251-0.267,0.508-0.283,0.761c-0.117,0.53,0.02,0.87,0.439,1.165c0.428,0.302,1.122,0.502,1.848,0.614
			c0.731,0.112,1.547,0.149,2.354,0.124c0.21-0.009,0.422-0.018,0.636-0.027c0.16-0.034,0.238-0.024,0.393-0.091
			c0.275-0.076,0.585-0.284,0.877-0.487c1.18-0.92,1.998-2.517,1.922-4.059c0.01-0.195-0.035-0.389-0.066-0.583
			c-0.02-0.206-0.08-0.371-0.131-0.534l-0.067-0.252l-0.162-0.354l-0.162-0.355l-0.04-0.089c0.014,0.029-0.045-0.098,0.028,0.061
			l-0.011-0.015l-0.02-0.031l-0.083-0.124c-0.419-0.697-0.938-1.146-1.617-1.401c-1.398-0.53-3.471-0.116-5.589,0.309l-0.831,0.142
			c-0.298,0.041-0.625,0.094-0.899,0.122l-0.404,0.039l-0.238,0.024l-0.167,0.023l-0.669,0.087c-0.878,0.18-1.704,0.484-2.62,0.97
			c-0.946,0.474-1.879,0.998-3.05,1.4c-0.584,0.24-1.049,0.331-1.556,0.48l-0.438,0.12l-0.461,0.081
			c-0.303,0.063-0.618,0.087-0.934,0.094c-1.276,0.054-2.462-0.301-3.389-0.673c-0.948-0.37-1.774-0.712-2.606-0.956
			c-1.653-0.487-3.298-0.623-4.853-0.569c-3.18,0.126-5.782,0.705-7.488,1.46c-0.852,0.359-1.527,0.769-2.094,0.792
			C298.175,162.747,298.016,162.468,298,162.5z"/>
		<path style="opacity:0.4;fill:#FFFFFF;enable-background:new    ;" d="M271.368,303.039c0,0,79.408-5.451,133.404,2.255
			l-9.897,70.688c0,0-56.049-6.757-63.655-14.059c-7.606-7.303,13.72-34.858,0-43.141C317.5,310.5,270.04,311,270.04,311
			L271.368,303.039z"/>
		<path style="opacity:0.1;fill:#FFFFFF;enable-background:new    ;" d="M415.103,231.508c0,0-9.431-3.828-18.517,1.082
			C387.5,237.5,389,248.506,376,245.253c-13-3.253-13.477-1.065-19.238,0.591C351,247.5,350,245.513,350,245.513s6,15.345,11,15.666
			c5,0.321,16.603-4.452,21.551-1.565C387.5,262.5,388.44,264,395.72,263c7.28-1,15.286-2.232,15.286-2.232L415.103,231.508z"/>
		<path style="opacity:0.4;fill:#FFFFFF;enable-background:new    ;" d="M400.98,332.377c0,0-12.646,5.377-22.314,0
			c-9.667-5.377-8-13.334-15.333-15.523s-21.193-1.189-21.193-1.189s18.193-1.014,21.86,5.66
			c3.667,6.674,1.667,15.491,12.333,17.249C387,340.333,400.053,339,400.053,339L400.98,332.377z"/>
		<path style="opacity:0.4;fill:#FFFFFF;enable-background:new    ;" d="M345.64,337c0,0-3.912,13.667,1.558,18
			c5.469,4.333,30.469,6.333,30.469,6.333S348.28,361.667,342.14,356C336,350.333,345.64,337,345.64,337z"/>
		<path style="opacity:0.4;fill:#FFFFFF;enable-background:new    ;" d="M271,306.666c0,0,24.86-4.146,48,2.427
			c0,0-26.667-3.24-48,0V306.666z"/>
		<path style="opacity:0.2;fill:#407BFF;enable-background:new    ;" d="M265.426,344.727c0,0,21.106-3.102,25.507,4.919
			c4.4,8.02-20.266,26.227,16.4,41.791s83.976,10.022,83.976,10.022L389,418l-133.72-0.05L265.426,344.727z"/>
	</g>
	<g>
		<path style="fill:#263238;" d="M254.545,418.242l-2.513-0.484c0,0-1.927,0.568-0.754,3.751h3.937L254.545,418.242z"/>
		<path style="fill:#407BFF;" d="M254.545,418.242c0,0,4.858-2.46,8.712-1.953c3.853,0.508,15.831-2.989,15.831-2.989l-0.335,8.209
			c0,0-5.165,1.257-10.373,0.419c-5.207-0.838-13.165-0.419-13.165-0.419S253.959,419.688,254.545,418.242z"/>
	</g>
	<g>
		<path style="fill:#407BFF;" d="M290.033,420.152l7.938,2.892c0,0,1.707-1.438,4.655-1.445c2.947-0.008,5.518,1.349,8.761,0
			c3.242-1.35,3.913-5.039,3.913-5.039l-2.795-1.656c0,0-0.336,3.901-3.913,2.723C305.014,416.448,295.623,414.131,290.033,420.152z
			"/>
		<polygon style="fill:#263238;" points="312.505,414.903 313.846,412.479 316.539,414.006 315.3,416.56 		"/>
		<path style="opacity:0.2;fill:#FFFFFF;" d="M290.033,420.152l7.938,2.892c0,0,1.707-1.438,4.655-1.445
			c2.947-0.008,5.518,1.349,8.761,0c3.242-1.35,3.913-5.039,3.913-5.039l-2.795-1.656c0,0-0.336,3.901-3.913,2.723
			C305.014,416.448,295.623,414.131,290.033,420.152z"/>
	</g>
	<g>
		<g>
			<polygon style="fill:#407BFF;" points="358.934,421.509 369.22,412.479 377.132,414.903 383.198,413.442 386.267,414.903 
				402.186,403.755 413.264,408.143 419.594,405.377 424.868,414.52 430.67,416.238 434.099,421.659 			"/>
			<polygon style="opacity:0.8;fill:#FFFFFF;" points="358.934,421.509 369.22,412.479 377.132,414.903 383.198,413.442 
				386.267,414.903 402.186,403.755 413.264,408.143 419.594,405.377 424.868,414.52 430.67,416.238 434.099,421.659 			"/>
		</g>
		<g>
			<path style="fill:#407BFF;" d="M352.527,421.659l5.484-6.605l14.242,4.73h14.014l6.755-2.911c0,0,5.623-3.346,5.581-3.457
				c-0.042-0.111,8.579,3.389,8.579,3.389l5.621,2.319h3.165l4.945,2.535H352.527z"/>
			<path style="opacity:0.9;fill:#FFFFFF;enable-background:new    ;" d="M352.527,421.659l5.484-6.605l14.242,4.73h14.014
				l6.755-2.911c0,0,5.623-3.346,5.581-3.457c-0.042-0.111,8.579,3.389,8.579,3.389l5.621,2.319h3.165l4.945,2.535H352.527z"/>
		</g>
	</g>
	<g>
		<path style="fill:#407BFF;" d="M347.198,423.216c0,0-4.748-2.219-4.549-3.242c0.198-1.023-2.77-5.004-3.758-5.708
			c-0.989-0.705-3.379-0.804-5.25-1.546c-1.871-0.741-3.75,6.416-6.767,4.519c-3.016-1.898-5.677,1.742-4.347,3.779l-2.23,2.198
			H347.198z"/>
		<path style="opacity:0.8;fill:#FFFFFF;" d="M347.198,423.216c0,0-4.748-2.219-4.549-3.242c0.198-1.023-2.77-5.004-3.758-5.708
			c-0.989-0.705-3.379-0.804-5.25-1.546c-1.871-0.741-3.75,6.416-6.767,4.519c-3.016-1.898-5.677,1.742-4.347,3.779l-2.23,2.198
			H347.198z"/>
	</g>
	<g>
		<path style="fill:#263238;" d="M295.571,421.95l2.638-1.22c0,0,2.109-0.28,2.768,2.424l-3.494,0.863L295.571,421.95z"/>
		<path style="fill:#407BFF;" d="M270.04,423.747l11.026,1.912c0,0,3.799-3.413,5.539-2.835c1.22,0.405,1.318,1.714,4.747,1.978
			c3.429,0.264,5.242,0.812,5.868-0.784c0.354-0.904-1.648-2.067-1.648-2.067s-3.96,0.3-6.594-2.954
			c-2.632-3.254-9.645-0.685-11.943,1.242C274.736,422.165,270.04,423.747,270.04,423.747z"/>
		<path style="opacity:0.2;enable-background:new    ;" d="M270.04,423.747l11.026,1.912c0,0,3.799-3.413,5.539-2.835
			c1.22,0.405,1.318,1.714,4.747,1.978c3.429,0.264,5.242,0.812,5.868-0.784c0.354-0.904-1.648-2.067-1.648-2.067
			s-3.96,0.3-6.594-2.954c-2.632-3.254-9.645-0.685-11.943,1.242C274.736,422.165,270.04,423.747,270.04,423.747z"/>
	</g>
</g>
<g id="Character">
	<g id="_x3C_Group_x3E__87_">
		<path style="fill:#263238;" d="M267.958,268.397c0.521-1.174,18.172-5.647,18.172-5.647s1.372,0.405,1.433,0.813
			c0.057,0.387-1.08,1.128-1.08,1.128S266.547,271.571,267.958,268.397z"/>
		<path style="fill:#407BFF;" d="M295.73,259.63c-0.08,0.22-1.12,2.81-3.9,4.23c-1.35,0.68-3.1,1.09-5.35,0.83
			c0,0,0.78-0.94-0.35-1.94c0,0,1.99-3.63,4.75-2.5c0.3,0.12,0.59,0.21,0.87,0.26C293.93,260.99,295.56,259.76,295.73,259.63z"/>
		<path style="fill:#E4897B;" d="M275.01,265.493c0,0-2.886,12.026-5.381,13.192c-2.496,1.175-4.489,0.583-4.489,0.583
			s-0.554,0.724-1.514,1.906c-4.326,5.322-16.928,19.998-24.34,20.042c-9.058,0.053-28.252-4.976-28.252-4.976l7.507-11.251
			c0,0,13.887,6.592,17.208,7.124c3.323,0.524,24.954-16.006,24.954-16.006s3.906-10.675,4.437-10.615
			c0.288,0.028,3.218,0.022,5.81,0.015C273.098,265.5,275.01,265.493,275.01,265.493z"/>
		<path style="fill:#263238;" d="M233.187,288.816l-11.419,12.289l-2.603-0.289l-16.125-1.77l6.112-9.55l6.208-13.635
			C224.52,282.466,233.187,288.816,233.187,288.816z"/>
		<path style="opacity:0.2;enable-background:new    ;" d="M221.535,301.24l-17.78-1.95l6.74-10.53
			C213.385,292.46,217.715,297.729,221.535,301.24z"/>
		<polygon style="fill:#E4897B;" points="159.512,403.141 172.426,404.582 184.338,405.901 183.14,395.833 183.136,395.803 
			183.126,395.805 182.27,395.796 172.921,395.699 163.343,395.61 		"/>
		<polygon style="opacity:0.2;enable-background:new    ;" points="172.426,404.582 184.338,405.901 183.14,395.833 
			183.126,395.805 182.27,395.796 172.92,395.69 172.921,395.699 		"/>
		<polygon style="fill:#263238;" points="177.819,391.923 178.722,409.001 174.344,408.44 174.245,391.436 		"/>
		<g>
			<path style="fill:#263238;" d="M160.804,403.42l6.489-8.095c0.217-0.274,0.216-0.662-0.003-0.936l-4.88-6.069
				c-0.441-0.539-1.235-0.617-1.773-0.176c-0.072,0.059-0.138,0.125-0.195,0.199c-2.057,2.652-3.425,4.689-6.061,7.977
				c-1.624,2.026-6.735,7.968-8.978,10.765c-2.242,2.798,0.229,5.377,1.4,4.437c5.236-4.239,9.887-6.861,12.679-7.323
				C160.007,404.118,160.48,403.84,160.804,403.42z"/>
			<path style="opacity:0.2;enable-background:new    ;" d="M160.804,403.42l6.489-8.095c0.217-0.274,0.216-0.662-0.003-0.936
				l-4.88-6.069c-0.441-0.539-1.235-0.617-1.773-0.176c-0.072,0.059-0.138,0.125-0.195,0.199c-2.057,2.652-3.425,4.689-6.061,7.977
				c-1.624,2.026-6.735,7.968-8.978,10.765c-2.242,2.798,0.229,5.377,1.4,4.437c5.236-4.239,9.887-6.861,12.679-7.323
				C160.007,404.118,160.48,403.84,160.804,403.42z"/>
		</g>
		<path style="fill:#407BFF;" d="M174.507,329.194l2.3,31.13c0,0,2.32,2.25,5.56,5.59c8.34,8.55,22.78,24.27,20.05,27.79
			c-3.8,4.899-16.47,3.729-16.47,3.729l-4.33,13.011l-0.98,2.939c0,0,0.33,0.09,0.93,0.24c2.76,0.68,11.26,2.62,20.47,3.03
			c12.41,0.55,26.11-1.66,28.76-13.431c5.06-22.42-16.676-50.108-27-60.01c-5.937-5.694-4.359-14.02-4.359-14.02H174.507z"/>
		<path style="opacity:0.2;enable-background:new    ;" d="M181.566,413.624c2.76,0.68,11.26,2.62,20.47,3.03
			c5.42-2.61,10.75-6.58,14.4-12.62c10.48-17.41-21.559-49.671-21.559-49.671v-7.55l-12.311,7.55l-0.2,11.551
			c8.34,8.55,22.78,24.27,20.05,27.79c-3.8,4.899-16.47,3.729-16.47,3.729l-4.33,13.011L181.566,413.624z"/>
		<path style="fill:#407BFF;" d="M159.513,403.137c0.068-0.05,0.159-0.054,0.231-0.01c0.071,0.039,0.108,0.119,0.091,0.198
			c-0.038,0.36-0.441,3.573-1.414,4.005c-0.216,0.105-0.474,0.073-0.658-0.082c-0.357-0.213-0.578-0.596-0.583-1.01
			c0.045-0.581,0.287-1.129,0.687-1.553C158.357,404.11,158.909,403.591,159.513,403.137z M159.366,403.772
			c-0.886,0.567-1.523,1.449-1.784,2.469c0.015,0.273,0.164,0.523,0.398,0.667c0.134,0.093,0.234,0.09,0.268,0.048
			c0.083-0.035,0.155-0.095,0.206-0.17C158.948,405.849,159.258,404.825,159.366,403.772z"/>
		<path style="fill:#407BFF;" d="M159.513,403.067c0.071-0.023,0.148-0.008,0.206,0.039c0.086,0.083,1.873,1.78,1.882,3.055
			c0.014,0.313-0.107,0.615-0.333,0.832c-0.197,0.248-0.542,0.321-0.823,0.176c-0.812-0.429-1.212-2.935-1.034-3.92l0.062-0.076
			C159.473,403.134,159.488,403.098,159.513,403.067z M161.251,406.215c-0.223-0.949-0.73-1.807-1.453-2.46
			c-0.034,1.101,0.397,2.839,0.898,3.101c0.049,0.025,0.181,0.104,0.344-0.1l0.061-0.076
			C161.205,406.548,161.259,406.383,161.251,406.215z"/>
		<polygon style="fill:#E4897B;" points="119.406,409.135 132.32,410.576 144.232,411.897 143.034,401.828 143.03,401.798 
			143.02,401.799 142.163,401.791 132.815,401.694 123.236,401.605 		"/>
		<path style="fill:#263238;" d="M120.697,409.415l6.489-8.095c0.217-0.274,0.216-0.662-0.002-0.936l-4.88-6.07
			c-0.441-0.538-1.235-0.616-1.773-0.176c-0.072,0.06-0.138,0.126-0.194,0.199c-2.058,2.653-3.425,4.69-6.062,7.979
			c-1.624,2.026-6.735,7.968-8.977,10.765c-2.243,2.798,0.229,5.377,1.4,4.437c5.236-4.239,9.886-6.861,12.679-7.323
			C119.901,410.113,120.374,409.835,120.697,409.415z"/>
		<path style="fill:#407BFF;" d="M119.407,409.132c0.068-0.05,0.159-0.054,0.231-0.01c0.07,0.039,0.107,0.119,0.091,0.198
			c-0.037,0.359-0.441,3.573-1.413,4.005c-0.217,0.104-0.475,0.073-0.658-0.082c-0.356-0.213-0.577-0.596-0.583-1.011
			c0.045-0.58,0.288-1.128,0.687-1.552C118.251,410.105,118.803,409.586,119.407,409.132z M119.26,409.767
			c-0.886,0.567-1.523,1.449-1.784,2.468c0.015,0.274,0.164,0.524,0.398,0.668c0.134,0.093,0.234,0.09,0.268,0.048
			c0.083-0.036,0.155-0.095,0.205-0.17C118.842,411.844,119.151,410.82,119.26,409.767z"/>
		<path style="fill:#407BFF;" d="M119.407,409.063c0.071-0.022,0.148-0.008,0.206,0.039c0.086,0.083,1.873,1.78,1.882,3.054
			c0.014,0.314-0.107,0.616-0.334,0.833c-0.197,0.248-0.542,0.321-0.823,0.176c-0.813-0.429-1.212-2.935-1.035-3.92l0.061-0.076
			C119.367,409.129,119.382,409.092,119.407,409.063z M121.145,412.21c-0.223-0.949-0.73-1.807-1.453-2.46
			c-0.034,1.101,0.397,2.839,0.897,3.101c0.049,0.025,0.182,0.104,0.345-0.1l0.061-0.076
			C121.099,412.543,121.152,412.378,121.145,412.21z"/>
		<polygon style="opacity:0.2;enable-background:new    ;" points="132.32,410.576 144.232,411.897 143.034,401.828 143.02,401.799 
			142.163,401.791 132.814,401.685 132.815,401.694 		"/>
		<path style="fill:#407BFF;" d="M183.27,326.928c2.675,12.292,29.674,70.362,12.618,85.808
			c-12.526,11.344-59.254,0.643-59.254,0.643l-0.727-14.159c0,0,36.777,1.215,40.641-3.054c3.864-4.268-18.828-36.387-21.974-45.143
			c-5.588-15.553,2.927-24.728,2.927-24.728L183.27,326.928z"/>
		<polygon style="fill:#263238;" points="137.713,397.918 138.616,414.996 134.238,414.435 134.14,397.432 		"/>
		<g>
			<path style="fill:#263238;" d="M217.087,277.81c-17.083,30.74-17.065,56.22-17.065,56.22l-47.869,0.351
				c0,0,0.823-19.101,3.247-30.311c2.663-12.28,6.219-21.26,9.431-27.54c4.388-8.59,8.156-12.13,8.156-12.13
				c2.013-0.787,10.513-0.065,16.559,1.6c8.465,2.331,18.996,4.17,23.676,7.5C218.237,277.06,217.087,277.81,217.087,277.81z"/>
			<path style="fill:#407BFF;" d="M205.092,282.319c-4.246,1.592-0.558,5.963-1.538,8.025c-0.979,2.062-8.862,6.611-6.671,8.589
				c2.191,1.979,2.774,2.571,2.045,6.527c-0.729,3.956,1.14-0.396,1.868-3.561c0.728-3.164,2.971-0.556,4.296-2.895
				c1.324-2.34,0.564-5.157,3.048-5.383c2.484-0.227,1.171-5.172,1.565-6.952C210.098,284.89,207.084,281.572,205.092,282.319z"/>
			<path style="fill:#407BFF;" d="M165.836,316.209c2.702-2.228,6.125-1.979,7.175,0c1.05,1.977,4.725,7.12,5.6,5.735
				c0.875-1.384,2.169-0.197,1.522,1.583c-0.647,1.78-1.977,2.967,0,4.153c1.978,1.188,0.928,3.561-1.347,3.165
				c-2.275-0.396-2.8,2.77-4.199,2.176c-1.4-0.593-3.726-1.78-6.938-1.582c-3.212,0.197-7.587,1.582-6.187-0.989
				c1.399-2.571,3.149-5.326,0.7-6.025c-2.45-0.7-0.875-3.073,1.749-2.084C166.536,323.329,164.333,317.448,165.836,316.209z"/>
			<path style="opacity:0.2;enable-background:new    ;" d="M172.987,289.44c-4.468,13.84-13.013,14.96-17.587,14.63
				c2.663-12.28,6.219-21.26,9.431-27.54C171.023,278.211,175.429,281.891,172.987,289.44z"/>
		</g>
		<path style="fill:#E4897B;" d="M155.619,277.58c0,0-12.929,13.909-15.182,15.486c-2.252,1.577-9.277-4.744-9.277-4.744
			l-7.325,4.744c0,0,6.718,7.526,13.426,10.666c6.706,3.14,25.273-16.781,25.273-16.781L155.619,277.58z"/>
		<path style="fill:#263238;" d="M172.987,264.4c5.955-1.541-0.493,24.809-0.493,24.809l-14.621,10.483L146,285.253
			C146,285.253,158.932,268.038,172.987,264.4z"/>
		<g>
			<path style="fill:#263238;" d="M121.4,265.338c6.814,0.927-4.22,6.203,0,9.222c4.22,3.018,20.044,10.99,7.648,20.191
				c-12.395,9.201-38.242,6.901-44.044-5.531C79.203,276.787,93.444,261.538,121.4,265.338z"/>
			<path style="opacity:0.4;fill:#FFFFFF;" d="M121.4,265.338c6.814,0.927-4.22,6.203,0,9.222c4.22,3.018,20.044,10.99,7.648,20.191
				c-12.395,9.201-38.242,6.901-44.044-5.531C79.203,276.787,93.444,261.538,121.4,265.338z"/>
			<path style="fill:#FFFFFF;" d="M105.432,269.229c4.655-1.184,6.132-1.009,6.923,1.594c0.792,2.602,1.385,3.872-1.78,4.424
				c-3.165,0.552-7.714,2.415-7.516,0c0.197-2.415-3.561-0.065-2.176-3.02C102.268,269.272,102.297,270.027,105.432,269.229z"/>
			<path style="fill:#407BFF;" d="M115.52,285.119c-3.096-2.106-5.468-4.039-2.536-5.097c2.932-1.059,4.712-0.65,6.69-0.459
				c1.978,0.191,3.758-0.145,5.143,2.99c1.385,3.136,0.396,6.439-3.362,6.073C117.696,288.261,117.265,286.306,115.52,285.119z"/>
			<path style="fill:#407BFF;" d="M93.564,288.655c0.452-2.939,1.385-3.794,4.55-4.666c3.165-0.872,8.036,1.384,8.666,2.333
				c0.631,0.949,5.773,1.74,3.598,3.916c-2.176,2.176-3.561,4.114-7.318,3.244C99.3,292.612,92.773,293.797,93.564,288.655z"/>
			<path style="fill:#407BFF;" d="M91.784,277.067c2.693-2.349,3.363-4.152,5.539-1.82c2.176,2.332,2.572,5.497,0,5.892
				c-2.571,0.396-6.33,4.214-7.121,1.414C89.411,279.755,88.731,279.729,91.784,277.067z"/>
			<path style="fill:#407BFF;" d="M116.905,293.695c-3.262-2.851-2.967-4.248,0-4.05c2.967,0.197,7.855,0.086,5.807,2.416
				C120.663,294.393,120.861,297.151,116.905,293.695z"/>
			<path style="fill:#407BFF;" d="M105.037,281.535c-1.822-0.067-2.967-2.173,0-2.669
				C108.004,278.37,110.377,281.732,105.037,281.535z"/>
			<path style="opacity:0.2;fill:#FFFFFF;" d="M105.037,281.535c-1.822-0.067-2.967-2.173,0-2.669
				C108.004,278.37,110.377,281.732,105.037,281.535z"/>
			<path style="opacity:0.4;fill:#FFFFFF;" d="M93.564,288.655c0.452-2.939,1.385-3.794,4.55-4.666
				c3.165-0.872,8.036,1.384,8.666,2.333c0.631,0.949,5.773,1.74,3.598,3.916c-2.176,2.176-3.561,4.114-7.318,3.244
				C99.3,292.612,92.773,293.797,93.564,288.655z"/>
			<path style="opacity:0.2;enable-background:new    ;" d="M116.905,293.695c-3.262-2.851-2.967-4.248,0-4.05
				c2.967,0.197,7.855,0.086,5.807,2.416C120.663,294.393,120.861,297.151,116.905,293.695z"/>
			<path style="opacity:0.6;fill:#FFFFFF;" d="M91.784,277.067c2.693-2.349,3.363-4.152,5.539-1.82c2.176,2.332,2.572,5.497,0,5.892
				c-2.571,0.396-6.33,4.214-7.121,1.414C89.411,279.755,88.731,279.729,91.784,277.067z"/>
		</g>
		<path style="fill:#E4897B;" d="M206.75,260.42c-1.88,2.23-3.15,5.12-3.9,7.22c-0.58,1.62-0.85,2.78-0.85,2.78
			c-9.25,1.66-14.42-4.42-14.42-4.42c5.19-2.45,6.765-6.06,7.275-8.31c0.23-1.04,0.145-1.79,0.145-2.011c0-0.04,0-0.06,0-0.06
			l0.305,0.1L206.75,260.42z"/>
		<path style="opacity:0.2;enable-background:new    ;" d="M206.75,260.42c-1.88,2.23-3.15,5.12-3.9,7.22
			c-5.79-2.27-6.316-7.877-6.796-10.667c-0.2-1.24-1.304-1.353-1.304-1.353l0.4,0.06l0.23,0.04L206.75,260.42z"/>
		<g>
			<path style="fill:#263238;" d="M185.232,233.761c0,0-7.201-4.695-9.179,2.829c-1.978,7.525,3.165,9.438,3.165,9.438
				s-1.687-9.445,6.014-9.438V233.761z"/>
			<g>
				<path style="fill:#263238;" d="M214.441,233.324c0,0,4.474,8.713,0.005,15.002c-4.468,6.288-11.483-14.468-11.483-14.468
					L214.441,233.324z"/>
				<path style="opacity:0.2;fill:#FFFFFF;" d="M214.441,233.324c0,0,4.474,8.713,0.005,15.002
					c-4.468,6.288-11.483-14.468-11.483-14.468L214.441,233.324z"/>
			</g>
			<path style="fill:#E4897B;" d="M199.198,262.128c0.327,0.297,0.689,0.589,1.067,0.866c4.261,3.161,9.307,2.653,12.938-0.003
				c2.337-1.712,4.083-4.32,4.66-7.417c0.088-0.407,0.141-0.822,0.181-1.252c0.064-0.847,0.089-1.752,0.064-2.694
				c-0.198-7.651-3.515-17.559-11.273-19.367c-6.201-1.488-12.456,2.33-13.944,8.544c-0.443,1.765-0.43,3.613-0.023,5.386
				C194.533,253.813,195.235,258.612,199.198,262.128z"/>
			<path style="fill:#263238;" d="M205.924,246.521c0.059,0.683,0.549,1.174,1.001,1.102c0.452-0.072,0.715-0.684,0.612-1.361
				c-0.103-0.679-0.561-1.173-1.001-1.102C206.095,245.231,205.82,245.833,205.924,246.521z"/>
			<path style="fill:#263238;" d="M213.615,245.306c0.059,0.683,0.56,1.173,1.001,1.102c0.441-0.071,0.715-0.684,0.612-1.361
				c-0.102-0.679-0.56-1.173-1.001-1.102C213.786,244.016,213.515,244.66,213.615,245.306z"/>
			<path style="fill:#DE5753;" d="M211.224,246.027c1.139,1.952,2.542,3.738,4.17,5.307c-0.839,0.826-2,1.238-3.173,1.127
				L211.224,246.027z"/>
			<path style="fill:#263238;" d="M203.144,244.408c0.151-0.002,0.29-0.085,0.363-0.217c0.463-0.918,1.333-1.564,2.346-1.742
				c0.221-0.019,0.385-0.213,0.366-0.435c-0.019-0.221-0.213-0.385-0.435-0.366c0,0-0.001,0-0.002,0
				c-1.286,0.192-2.398,0.997-2.985,2.158c-0.111,0.192-0.043,0.438,0.149,0.548c0.003,0.002,0.005,0.004,0.008,0.005
				C203.015,244.386,203.079,244.402,203.144,244.408z"/>
			<path style="fill:#263238;" d="M216.5,242.132c0.08,0.019,0.163,0.011,0.238-0.021c0.184-0.124,0.232-0.374,0.108-0.558
				c-0.002-0.003-0.003-0.005-0.005-0.008c-0.722-1.087-1.927-1.755-3.231-1.79c-0.222,0.007-0.396,0.192-0.389,0.414
				c0,0.001,0,0.001,0,0.001c0.013,0.221,0.195,0.392,0.416,0.39l0,0c1.029,0.058,1.969,0.599,2.537,1.458
				C216.261,242.102,216.38,242.144,216.5,242.132z"/>
			<path style="fill:#263238;" d="M195.594,251.639c-0.715,0.371,0.804,6.931,0.804,6.931s-3.53-1.054-6.262-6.2
				c-5.39-10.157-4.099-12.925-1.702-15.13c4.447-4.089,12.247,0.345,12.247,0.345c-2.362,0.01-4.082,2.457-2.78,4.483
				c1.816,2.826,1.061,7.95-0.901,10.338C196.999,252.405,196.65,251.091,195.594,251.639z"/>
			<path style="fill:#263238;" d="M211.673,256.159L211.673,256.159c-1.929,0.611-4.034,0.244-5.642-0.983
				c-0.088-0.078-0.098-0.213-0.022-0.303c0.071-0.089,0.201-0.104,0.29-0.032c0.004,0.004,0.008,0.007,0.012,0.011
				c1.51,1.105,3.453,1.435,5.242,0.889c0.108-0.037,0.226,0.02,0.263,0.128c0.002,0.007,0.005,0.015,0.006,0.022
				c0.037,0.107-0.02,0.225-0.128,0.262C211.688,256.155,211.68,256.157,211.673,256.159z"/>
			<path style="fill:#263238;" d="M200.681,237.584c0,0,9.016,0.333,12.913-0.999c0,0,1.325-0.865,1.475-2.559
				c0.326-3.691-5.648-9.762-15.212-9.389c-14.39,0.562-20.667,15.621-11.588,23.921
				C188.268,248.559,189.175,237.191,200.681,237.584z"/>
			<path style="opacity:0.2;fill:#FFFFFF;" d="M195.594,251.639c-0.715,0.371,0.804,6.931,0.804,6.931s-3.53-1.054-6.262-6.2
				c-5.39-10.157-4.099-12.925-1.702-15.13c4.447-4.089,12.247,0.345,12.247,0.345c-2.362,0.01-4.082,2.457-2.78,4.483
				c1.816,2.826,1.061,7.95-0.901,10.338C196.999,252.405,196.65,251.091,195.594,251.639z"/>
			<path style="fill:#E4897B;" d="M190.306,253.617c1.226,1.744,3.093,2.931,5.192,3.3c2.783,0.47,3.878-2.095,2.863-4.57
				c-0.922-2.192-3.481-5.156-6.157-4.472S188.828,251.458,190.306,253.617z"/>
			<path style="fill:#263238;" d="M210.604,253.477c0,0-3.891-1.744-5.868-1.103c-1.979,0.642-5.025,7.967-4.054,10.914
				c0.972,2.948,8.076,4.69,11.768,1.891c3.692-2.801,3.285-10.977,1.973-11.569c-1.314-0.594-3.198,0-3.198,0v0.856
				c0,0,2.215-1.187,2.808,0.33c0.593,1.517,0.462,6.791-1.78,6.923c-2.242,0.132-1.648-3.15-1.648-3.15l-1.708-0.246
				c0,0,0.26,3.198-2.675,3.065c-2.936-0.132-3.354-4.832-1.222-6.923c2.131-2.09,5.143-0.132,5.143-0.132L210.604,253.477z"/>
		</g>
		<path style="opacity:0.3;fill:#FFFFFF;enable-background:new    ;" d="M295.73,259.63c-0.08,0.22-1.12,2.81-3.9,4.23
			c0.21-0.4,0.42-0.841,0.5-1.21c0.2-0.94-3.33-0.44-1.4-1.27c0.48-0.21,0.72-0.52,0.82-0.87
			C293.93,260.99,295.56,259.76,295.73,259.63z"/>
	</g>
</g>
</svg>
